<svg xmlns="http://www.w3.org/2000/svg" viewBox="0 0 693.87 133.29"><defs><style>.cls-1,.cls-2{fill:#fff;}.cls-2{fill-rule:evenodd;}</style></defs><title>logo</title><g id="Layer_2" data-name="Layer 2"><g id="Layer_1-2" data-name="Layer 1"><path class="cls-1" d="M113.27,116.54V23.36c0-2.1.42-2.52,7.14-2.52,7.41,0,7.84.42,7.84,2.66V56.24c0,2.38,0,3.92,1.82,4.48,1.26.14,6.16.42,7.7,0,1.12-.42,1.12-2,1.12-4.06V22.94c0-2.38.84-2.1,7.56-2.1,7.14,0,7.56,0,7.56,2.24V115.7c0,2.66,0,2.8-7.42,2.8s-7.7-.14-7.7-2.8V78.63c0-1.68,0-3.08-1.26-3.22-1.68-.42-7.83-.14-8.39,0-1.12.42-1.12,1.68-1.12,3.5v37.36c0,2.24-.42,2.24-7.7,2.24-6.86,0-7.14,0-7.14-2"/><path class="cls-1" d="M204.92,99.05c0,11.61-7.42,19.59-20.43,19.59-12.73,0-20.29-9.23-20.29-19.45V23.08c0-2.24,1-2.38,7.84-2.38,5.6,0,7.14.28,7.14,2.38V96c0,3.78.7,7.84,5.32,7.84s5.32-3.92,5.32-7.84v-73c0-2,.7-2.24,7-2.24,7.28,0,8.12.42,8.12,2.1Z"/><path class="cls-1" d="M221.85,118.64c-6.86,0-6.72-.28-6.72-2.38V23.08c0-2.38,1-2.24,6.44-2.24,6,0,7,.7,8.4,5.18,2.1,7.14,4.2,13.43,6.16,20,1.4,4.9,2.94,9.23,3.92,9.23S242.42,51.2,244,46l6.16-20c1.26-4.48,2.24-5.32,7.69-5.32,6,0,7.28.14,7.28,2.38v93c0,2.24.14,2.52-7.41,2.52-6.86,0-7.28-.28-7.28-2.38,0-19.59,0-44.91-.42-56-.56-1.26-1.82-.84-2.1.56-1.68,7.84-3.36,14.27-4.76,19-.28,1.4-.84,2.1-3.08,2.1s-2.66-.7-3.08-2c-1.12-4.34-2.8-11.19-4.48-18.89-.28-1.4-2-1.82-2.52-.7-.42,11.19-.42,36.1-.42,55.69,0,2.24-.42,2.52-7.69,2.52"/><path class="cls-1" d="M279.64,118.64c-2.1,0-7,0-6.86-1.26,5.18-36.52,8.82-61,13.43-94.73.28-2,4.2-2.1,7.28-2.1,3.5,0,7.28.14,7.56,2.52,5.46,35.82,8.53,57.65,14.13,94.16.28,1.54-3.92,1.4-7.69,1.4-4.06,0-6.72.28-7-1.68-1.12-7.84-1.68-13.15-2.8-20.85-.14-1.4-1.82-1.12-4.06-1.12-2.66,0-4.06-.28-4.2,1.12-.84,7.83-1.4,13-2.1,21.13-.14,1.54-3.22,1.4-7.7,1.4M293.49,84.5c1.82,0,3.22.28,3.08-1-.7-10.35-1.12-16.23-1.82-27.28,0-.7-.28-3.78-1.26-3.78-.7,0-1,3.5-1,4.06-.7,10.91-1.26,17.91-1.82,26.86-.14,1,.7,1.12,2.8,1.12"/><path class="cls-1" d="M338.55,65.34c-1,0-1,2.94-1,4.76v46c0,2.24-.42,2.52-7.7,2.52-7,0-7-.28-7-2.38V22.66c0-2,.28-2,6.44-2s6.72.56,7.84,4.48c2.94,11.47,7,26.44,11.33,41.27.28,1.4.84,3.64,1.68,3.64s1-2.66,1-4.2V23.22c0-2.24.42-2.52,7.42-2.52s7.28.14,7.28,2.38v91.51c0,3.64.14,4.06-7,4.06-3.64,0-5.18-.28-6.15-3.78-4.62-16.23-6.3-23.64-11.19-41.27-.84-3.08-2-8.26-2.94-8.26"/><path class="cls-1" d="M407.27,23.08v76.4c0,1.82-.14,4.2.84,4.9a9.36,9.36,0,0,0,3.78.56h12.45c1.82,0,2,.7,2,6.58,0,6.72-.14,7.13-1.82,7.13H397.61c-2,0-3.92,0-4.61-.84s-.7-3.08-.7-4.9v-90c0-2,.7-2.24,7-2.24,7.13,0,8,.14,8,2.38"/><path class="cls-1" d="M441.13,118.5c-6.85,0-7.14,0-7.14-2V23.08c0-2.1.56-2.24,7.14-2.24,7.42,0,7.84.14,7.84,2.38v93c0,2.1-.14,2.24-7.84,2.24"/><path class="cls-1" d="M495.14,112.35c-4.48,4.76-10.91,6.3-16.37,6.3-4.2,0-10.21.14-13.57,0-2-.14-3.77.14-4.2-.7-.7-1-.84-1.26-.84-4.2V25c0-1.82,0-2.94.84-3.64s1.82-.7,3.36-.7h13.85c6.15,0,12.45,1.82,16.65,5.88,3.92,3.92,5.46,9.51,5.46,15.25V53.72c0,4.34-.84,7-2.66,9.51-2.52,3.22-6.44,3.92-6.44,4.48s4.62.84,7.41,4.76c1.68,2.52,2.24,4.9,2.24,8.67V97.38a20.17,20.17,0,0,1-5.74,15M483.39,37.07c-1-1.12-2-1.68-4.48-1.68-1.68,0-2.8,0-3.22.56a3,3,0,0,0-.56,2V58.76c0,1.26,0,2.1.7,2.66s1.4.42,2.52.42a6.65,6.65,0,0,0,5-2.1,7.33,7.33,0,0,0,2-5.46V44.77c0-2.94-.14-5.6-2-7.7m-3.22,38.2c-4.48,0-5,.14-5,2.66v22.95c0,1.26,0,2.8,1,2.94a14,14,0,0,0,2.8.14,6.84,6.84,0,0,0,5-2c1.82-1.82,2-3.64,2-6.15V84.08c0-5.18-1.68-8.81-5.74-8.81"/><path class="cls-1" d="M544,118.64c-6.72,0-7.28.14-7.28-2.38V84.08c0-4.9-1.68-8.81-5.17-8.81-4.9,0-5.46-.14-5.46,1.82V116c0,2.66-1.12,2.66-8.12,2.66-5.74,0-6.85,0-6.85-3.08V25a7.83,7.83,0,0,1,.56-3.5c.84-1.12,1.82-.84,3.63-.84h13.85c6,0,12.17,1.68,16.37,5.74s5.74,9.51,5.74,15.39V53.72c0,4.06-.56,6.71-2.38,9.23-2.52,3.78-6.85,4.62-6.85,5s4.47.84,7.13,4.34c1.82,2.52,2.52,4.9,2.52,8.81v35.26c0,2.24-1,2.24-7.7,2.24m-9.65-81.57c-1-1.12-1.82-1.68-5-1.68-1.26,0-2.24,0-2.8.7a3.92,3.92,0,0,0-.42,1.82V58.76c0,1.26,0,2.24.7,2.8s1.4.28,2.52.28a7.06,7.06,0,0,0,5-2.1,7.49,7.49,0,0,0,2-5.46V44.77c0-2.94-.14-5.6-2-7.7"/><path class="cls-1" d="M564.83,118.64c-2.1,0-7,0-6.86-1.26,5.18-36.52,8.82-61,13.43-94.73.28-2,4.2-2.1,7.27-2.1,3.5,0,7.28.14,7.56,2.52,5.46,35.82,8.54,57.65,14.13,94.16.28,1.54-3.92,1.4-7.7,1.4-4.06,0-6.72.28-7-1.68-1.12-7.84-1.68-13.15-2.8-20.85-.14-1.4-1.82-1.12-4.06-1.12-2.66,0-4.06-.28-4.2,1.12-.84,7.83-1.4,13-2.09,21.13-.14,1.54-3.22,1.4-7.7,1.4M578.68,84.5c1.82,0,3.22.28,3.08-1-.7-10.35-1.12-16.23-1.82-27.28,0-.7-.28-3.78-1.26-3.78-.7,0-1,3.5-1,4.06-.7,10.91-1.26,17.91-1.82,26.86-.14,1,.7,1.12,2.8,1.12"/><path class="cls-1" d="M640.94,118.64c-6.72,0-7.28.14-7.28-2.38V84.08c0-4.9-1.68-8.81-5.18-8.81-4.9,0-5.46-.14-5.46,1.82V116c0,2.66-1.12,2.66-8.12,2.66-5.73,0-6.85,0-6.85-3.08V25a7.83,7.83,0,0,1,.56-3.5c.84-1.12,1.82-.84,3.63-.84h13.85c6,0,12.18,1.68,16.37,5.74s5.74,9.51,5.74,15.39V53.72c0,4.06-.56,6.71-2.38,9.23-2.52,3.78-6.85,4.62-6.85,5s4.48.84,7.13,4.34c1.82,2.52,2.52,4.9,2.52,8.81v35.26c0,2.24-1,2.24-7.7,2.24m-9.65-81.57c-1-1.12-1.82-1.68-5-1.68-1.26,0-2.24,0-2.8.7a3.88,3.88,0,0,0-.42,1.82V58.76c0,1.26,0,2.24.7,2.8s1.4.28,2.52.28a7.06,7.06,0,0,0,5-2.1,7.5,7.5,0,0,0,2-5.46V44.77c0-2.94-.14-5.6-2-7.7"/><path class="cls-1" d="M666,77.79c-.28-1.82-1.26-5.32-2-8.4C660.25,53,657,39.17,653.54,22.8c-.42-1.82,3.92-2,6.3-2,4.34,0,8.25.14,8.54,2.24,1.68,12.17,3.22,23.09,4.76,34.42,0,.42.28,1.26.84,1.26s.7-1,.7-1.4c1.82-12.45,2.8-21.69,4.48-34.28.28-1.82,4.2-2.24,7.83-2.24s7.28.14,6.86,2c-3.5,16.51-6.16,29.24-10.08,45.75-.7,2.94-1.12,6-1.54,8.25a43.4,43.4,0,0,0-.84,7.42v33.3c0,1.26-5.88,1.12-7.69,1.12-2.24,0-7.42.14-7.42-1.54,0-11.33.14-20,.14-32.46a45.72,45.72,0,0,0-.42-6.86"/><path class="cls-2" d="M98.29,61.93a3,3,0,0,1,0,1.59c-1.28,2.55-3.9,1.64-6.35,2.58-2-.88-.28-3.08.4-4.17-2.13.4-3.31,3.89-5.55,3.57s-1.32-3.24-1-5c-1.8.65-4.42,4.36-7.34,3.57-4.13-1.11,1.91-4.53,3-5.56A27.86,27.86,0,0,0,85.19,54c-4.93,2.14-8.42,5.73-12.3,8.93-.74.41-1.16-.93-1.19,0,.26,2.31-1.4,2.7-2,4.17,3.74,1.89.88,4.11-1.39,5.75-1.55,1.12-2.86,1.9-4,2.78-2.94,2.34-5.82,4.08-7.14,5.75C62,79.08,65.42,75.43,71.11,74c.51.55,1.44.67,1.59,1.59-1.16,1.3.4,1.62.2,3-.37,2.42-5,2.93-5.75,4.76,1.7-1.29,5.67-1.68,5.75,1C73,86.68,68,89.75,66,91.49c-3,2.54-6,4.45-7.34,6.35,5.12-2.82,8.94-6.93,14.88-8.93,2.44,2.14-1.72,3.7-3.37,4.76-4.43,2.84-10.17,6.17-12.3,9.33.92-1.09,2.71-1.21,4.17-2.18,2.26-1.5,7-8,10.91-6.94,2,.53,1.65,4.28.2,5.55.62.76,1.66,1.12,1.79,2.38-.59,1.22-1.6,2-.79,3.57-1,1.79-3.41,3.2-3.77,5,.83-1.21,3.93-1.51,4,.6-1.79,2.64-5.56,4.36-6.55,7.14,1.45-1,8-6.69,8.53-3,.3,2.33-3.8,3.76-3.77,5.75,1.29-1.26,4.06-2.09,4,.2-.06,1.44-2.56,1.84-2.78,3.57,4.44,0,.66,2.81,0,5.16-.12.42.16,1.1,0,1.39-.58,1.09-2,1.36-2.18,2-.06.23-.43.13-.6,0-.82-.67-1.41-2.05-.4-3-2.55.39-2.88-1.87-2-3.37-.59.14-2.07.13-2.38-.6-.93-2.48,1.92-3.89,2-5.36-2.95,3.54-6.82.51-3.77-3.17a1.93,1.93,0,0,1-3-1c.64-1.8,2.88-3.07,3.17-4.56-.95,1.55-6.4,3.28-6,0,.19-1.38,4.15-3,5.75-4.17,2.33-1.73,4.45-3.17,5.16-4.37-2.68.77-7.62,6.28-11.71,5.75-.42-.05-.63-.77-1.79-1.19-.7-.25-1.41,0-1.79-.2-1.56-1-1.13-2.8-.4-4.56-5-.33-.62-4.54,1.19-6.15,3.26-2.89,6.13-5.06,9.13-7.54a23.14,23.14,0,0,0,4-4C63.86,88,58.89,92.62,54.44,95.86c-2.71,2-7.51,5.2-6.75-.79-3.3-1.56-6.93.71-9.13,2.58.73.56.52,1.35.4,2-.79,4.16-8.47,7.53-11.11,9.72a7.57,7.57,0,0,1,.2,2.18,17.26,17.26,0,0,1-6.35,6.15c-1.4,3.49-5,4.78-7.54,7.14-.38.48.22,1-.2,1.59-1.37,2.34-6.6,2-4-1.39-3.44-.54-.36-3.5,1-4-1.62.12-2.12-.3-2.38-1.19-1-3.54,5.19-4.91,7.34-6.15,7-4,15.75-9.21,20-14.09-7.18,3.4-12.29,8.88-19.44,12.3-.58.05-.61-.45-1.19-.4-1.08,1.52-4.06,2.85-4.17,0-.13-3.45,7.78-6.86,8.33-8.93-1.72,1.47-5.2,1.55-5.55-1.19,4.69-5.92,12.71-9.69,19-13.69,1.72-1.08,3.7-1.94,4.76-3.57-3.3,2-6.27,4.31-10.52,5.36-1,1.33-10.79,9.42-9.72,1.59.3-2.21,2.95-5.21,4.76-6.94a67.19,67.19,0,0,1,6.55-5.36c4.83-3.56,9-7.43,13.1-10.71,8.37-6.67,16-11.48,24.2-17.26,1.11-.78,2.69-1.16,3.18-2.38C52.73,56.85,38.85,68,23.89,78c-3.22-2.68.22-7.57,2.58-8.93-1.65-1.86.76-3.89,1-5-.65.35-1.89.93-2.58.6-2-1.47.45-3.59,1.19-4.76-1.19-3.84,2.84-5.71,4.76-7.74-1.74.7-3.31,2.32-5.36,4.17-1.87,1.68-5.71,6.41-6.75,2.58-2.82.76-5.9,4.76-10.12,4-4.9-.92,0-4.35,1.79-5.56,4.52-3.1,9.41-6,12.7-8.93C15.76,53.08,8.7,58,1.07,62.33c-.36-.3-.82-.5-1-1a1,1,0,0,1,0-.79c.52-1.26,1.73-1.62,2.78-2.38.79-.58,2.55-1.49,3-2.18s-.07-1.59.4-2.18S8.8,52.3,10,51.61c8.73-5,17.71-10.59,26.19-15.28-2.42-1.55-5-2.92-7.54-4.37C30.1,21.25,32,11,33.22,0l.2,0c9.81,1.9,16.31,7.1,22.62,12.5A52.54,52.54,0,0,1,83,4.79C80.54,15.87,77.8,26.7,75.08,37.53c-1.65.24-3.6.74-5.36,1.19s-4,.6-4.56,1.79c.06.27.28.38.2.79,3-.57,7.3.63,6,3.77,1.93-1.22,5.75-.86,5.55,1.39-.08.88-2.42,2.18-3.57,3-4.08,2.82-9.13,5.7-12.1,8.13,4.58-2.19,10.78-5.65,16.67-7.74,1.69-.6,5.37-2.12,5.56.2s-3.55,2.69-4.56,4.36c2.12-2.23,12.06-5.06,8.73,1,.31.87,1-1.09,2.18-.59,1.87,1.67-.94,4.64-.79,6.35,1.21-2,7.69-5.88,6.94-.2A1.65,1.65,0,0,1,98.29,61.93ZM33,29.59A69.52,69.52,0,0,1,50.67,43.68,45.05,45.05,0,0,1,71.9,34c1.92-8.2,3.89-16.35,5.75-24.6C68.48,10.62,61,13.56,55,18.08A39.86,39.86,0,0,0,36.59,5.19C35.57,13.49,34.16,21.41,33,29.59Zm-5,20c3.2-2.2,5.57-4.2,8.93-6.35,1.11-.71,5.32-2.44,3.57-3.57C33,45.49,24,51,16.35,56.57c-1,.74-2.38,1.21-3,2.38C17.9,56.23,23.72,52.61,28.06,49.63Zm32.34-.4c3.06-1.44,6-3,8.13-5.36C63.56,43.4,62.53,46.87,60.4,49.23ZM46.11,45.07c-5.73,4.46-13,7.36-17.46,13.1,6.65-3.46,12.81-7.43,19.44-10.91C48.22,46.47,47,45.52,46.11,45.07ZM38,59.15c-3.21,2.21-6.42,4.55-8.53,7.54,9.2-6.87,21.16-11,29-19.24,0-.25.31-.41-.2-.4C51.39,50.9,44.29,54.82,38,59.15Zm29.36-1.79c-6.49,3.49-13,7.16-19,11.11-8.14,5.29-17,9.92-22,18.25,13.09-8.49,23.9-21,40.47-26.39,2.55-2.15,6.26-4.19,7.94-6.55C72.43,55.2,69.76,56.07,67.34,57.37Zm3,3.77c.46.13.53.66,1,.79.3-2.34,2.55-2.74,3.57-4.36A36.49,36.49,0,0,0,70.32,61.14ZM63,66.69c2.73-.38,5.27-1,6-3.37C66,62.79,65,65.71,63,66.69Zm-28,.4c0-.25.31-.41-.2-.4-3.28,1.95-6.81,3.64-8.93,6.75C29.13,71.54,31.8,69,35,67.09ZM42.74,77.8c4.76-2.71,8.62-6.33,13.29-9.13,0-.24.35-.45,0-.6C51.56,71.28,46.91,74.3,42.74,77.8Zm1,6.55C35.75,89,29.55,95.51,22.5,101A181.09,181.09,0,0,0,46.31,85.94C52.83,81,59.59,76.11,65.75,71.25c.83-.65,2-1.12,2.38-2.18-.37,0-.44-.22-.79-.2A239.91,239.91,0,0,1,43.73,84.35Zm3.37,7.54c2.49,1.35,3.86-1.27,5.56-2.58,3-2.35,6.56-4.64,8.93-7.14A120,120,0,0,0,47.1,91.89Zm7.74-.4c-1.5,1.13-3.23,2.06-4,3.57C55,91.8,60,88.32,63.57,85.14A80.22,80.22,0,0,0,54.84,91.49Zm-34.32-.4c1.4-.45,2.25-1.45,3.37-2.18a19.06,19.06,0,0,0-.6-2C22.47,88.42,21,89.26,20.52,91.1Z"/></g></g></svg>